<svg enable-background="new 0 0 16 16" viewBox="0 0 16 16" xmlns="http://www.w3.org/2000/svg" xmlns:xlink="http://www.w3.org/1999/xlink"><clipPath id="a"><path d="m2 0h12c1.1 0 2 .9 2 2v12c0 1.1-.9 2-2 2h-12c-1.1 0-2-.9-2-2v-12c0-1.1.9-2 2-2z"/></clipPath><clipPath id="b"><path d="m-20-20h56v56h-56z"/></clipPath><clipPath id="c"><path d="m2 0h12c1.1 0 2 .9 2 2v12c0 1.1-.9 2-2 2h-12c-1.1 0-2-.9-2-2v-12c0-1.1.9-2 2-2z"/></clipPath><clipPath id="d"><path d="m0 0h16v16h-16z"/></clipPath><clipPath id="e"><path d="m0 0h16v16h-16z"/></clipPath><clipPath id="f"><path d="m6.09 9.63 5.51-5.79c.42-.44 1.12-.46 1.56-.04.01.01.03.03.04.04.45.47.45 1.21 0 1.68l-2.54 2.67-1.13 1.2-2.65 2.79c-.41.43-1.1.45-1.53.04-.01-.01-.03-.03-.04-.04l-1.26-1.33-1.25-1.31c-.45-.47-.45-1.21 0-1.68.43-.44 1.13-.46 1.57-.04l.04.04z"/></clipPath><clipPath id="g"><path d="m-3-2h22v20h-22z"/></clipPath><clipPath id="h"><path d="m2 3h12v10h-12z"/></clipPath><g clip-path="url(#a)" enable-background="new"><g clip-path="url(#b)"><g clip-path="url(#c)"><path clip-path="url(#d)" d="m2 0h12c1.1 0 2 .9 2 2v12c0 1.1-.9 2-2 2h-12c-1.1 0-2-.9-2-2v-12c0-1.1.9-2 2-2z" fill="#0f155b"/></g></g><g clip-path="url(#b)"><path clip-path="url(#e)" d="m2 0h12c1.1 0 2 .9 2 2v12c0 1.1-.9 2-2 2h-12c-1.1 0-2-.9-2-2v-12c0-1.1.9-2 2-2z" fill="none" stroke="#0f155b" stroke-miterlimit="10" stroke-width="4"/></g></g><g clip-path="url(#f)" enable-background="new"><g clip-path="url(#g)"><path clip-path="url(#h)" d="m-2.53-1.5h21.07v19.01h-21.07z" fill="#fff"/></g></g></svg>